<?xml version="1.0" encoding="utf-8"?>
<!-- Generator: Adobe Illustrator 26.1.0, SVG Export Plug-In . SVG Version: 6.00 Build 0)  -->
<svg version="1.1" id="Layer_1" xmlns="http://www.w3.org/2000/svg" xmlns:xlink="http://www.w3.org/1999/xlink" x="0px" y="0px"
	 viewBox="0 0 272.9 181.3" style="enable-background:new 0 0 272.9 181.3;" xml:space="preserve">
<style type="text/css">
	.st0{fill:#95C3EA;}
	.st1{fill:#FFFFFF;}
	.st2{fill:#5F5CCF;}
</style>
<g>
	<path class="st0" d="M213.3,181.3H59.6C26.7,181.3,0,154.6,0,121.7V59.6C0,26.7,26.7,0,59.6,0H189c5.5,0,10,4.5,10,10
		s-4.5,10-10,10H59.6C37.8,20,20,37.8,20,59.6v62.1c0,21.9,17.8,39.6,39.6,39.6h153.7c21.9,0,39.6-17.8,39.6-39.6V81.4
		c0-5.5,4.5-10,10-10s10,4.5,10,10v40.3C272.9,154.6,246.2,181.3,213.3,181.3z"/>
	<path class="st1" d="M136.5,135.6c-12.4,0-24.3-2.9-33.4-8.1c-10.7-6.1-16.8-15.2-16.8-25c0-5.5,4.5-10,10-10s10,4.5,10,10
		c0,5.2,12,13.1,30.1,13.1c18.1,0,30.1-7.9,30.1-13.1c0-5.5,4.5-10,10-10s10,4.5,10,10c0,9.8-6.1,18.9-16.8,25
		C160.8,132.7,148.9,135.6,136.5,135.6z"/>
	<circle class="st2" cx="238" cy="30.9" r="24.9"/>
</g>
</svg>
